<?xml version="1.0" encoding="UTF-8" standalone="no"?>
<svg
   xmlns:dc="http://purl.org/dc/elements/1.1/"
   xmlns:cc="http://creativecommons.org/ns#"
   xmlns:rdf="http://www.w3.org/1999/02/22-rdf-syntax-ns#"
   xmlns:svg="http://www.w3.org/2000/svg"
   xmlns="http://www.w3.org/2000/svg"
   xmlns:sodipodi="http://sodipodi.sourceforge.net/DTD/sodipodi-0.dtd"
   xmlns:inkscape="http://www.inkscape.org/namespaces/inkscape"
   width="16"
   height="16"
   viewBox="0 0 16 16"
   fill="none"
   version="1.1"
   id="svg4"
   sodipodi:docname="cross.svg"
   inkscape:version="0.92.4 (5da689c313, 2019-01-14)">
  <metadata
     id="metadata10">
    <rdf:RDF>
      <cc:Work
         rdf:about="">
        <dc:format>image/svg+xml</dc:format>
        <dc:type
           rdf:resource="http://purl.org/dc/dcmitype/StillImage" />
      </cc:Work>
    </rdf:RDF>
  </metadata>
  <defs
     id="defs8" />
  <sodipodi:namedview
     pagecolor="#ffffff"
     bordercolor="#666666"
     borderopacity="1"
     objecttolerance="10"
     gridtolerance="10"
     guidetolerance="10"
     inkscape:pageopacity="0"
     inkscape:pageshadow="2"
     inkscape:window-width="965"
     inkscape:window-height="847"
     id="namedview6"
     showgrid="false"
     inkscape:zoom="14.75"
     inkscape:cx="8"
     inkscape:cy="8"
     inkscape:window-x="683"
     inkscape:window-y="91"
     inkscape:window-maximized="0"
     inkscape:current-layer="svg4" />
  <path
     d="m 15.1943,2.41714 c 0.445,-0.44498 0.445,-1.16644 0,-1.611426 -0.445,-0.444984 -1.1665,-0.444983 -1.6114,0 L 8,6.38857 2.41714,0.805715 C 1.97216,0.360732 1.2507,0.36073 0.805714,0.805714 0.36073,1.2507 0.360731,1.97216 0.805714,2.41714 L 6.38857,8 0.805715,13.5829 c -0.444983,0.4449 -0.444985,1.1664 -10e-7,1.6114 0.444986,0.445 1.166446,0.445 1.611426,0 L 8,9.61143 13.5829,15.1943 c 0.4449,0.445 1.1664,0.445 1.6114,0 0.445,-0.445 0.445,-1.1665 0,-1.6114 L 9.61143,8 Z"
     id="path2"
     style="fill:#ff5555"
     inkscape:connector-curvature="0" />
</svg>
